<?xml version="1.0" encoding="UTF-8" standalone="no"?>
<svg width="259px" height="125px" viewBox="0 0 259 125" version="1.1" xmlns="http://www.w3.org/2000/svg" xmlns:xlink="http://www.w3.org/1999/xlink" xmlns:sketch="http://www.bohemiancoding.com/sketch/ns">
    <!-- Generator: Sketch 3.1.1 (8761) - http://www.bohemiancoding.com/sketch -->
    <title>about-presents</title>
    <desc>Created with Sketch.</desc>
    <defs></defs>
    <g id="Page-1" stroke="none" stroke-width="1" fill="none" fill-rule="evenodd" sketch:type="MSPage">
        <g id="about-presents" sketch:type="MSLayerGroup">
            <rect id="About-background" fill="#FEFEFE" sketch:type="MSShapeGroup" x="0" y="0" width="175" height="61"></rect>
            <rect id="Presents-background" fill="#FEFEFE" sketch:type="MSShapeGroup" x="0" y="64" width="259" height="61"></rect>
            <path d="M26.576,35.322 L22.298,15.42 L22.174,15.42 L17.896,35.322 L26.576,35.322 Z M27.754,7.732 L39.472,52 L30.172,52 L28.126,42.638 L16.346,42.638 L14.3,52 L5,52 L16.718,7.732 L27.754,7.732 Z M50.4,45.428 L50.4,32.098 L54.244,32.098 C55.2360049,32.098 56.1453292,32.2013323 56.972,32.408 C57.7986708,32.6146677 58.5116636,32.9763307 59.111,33.493 C59.7103363,34.0096693 60.1856649,34.6916624 60.537,35.539 C60.8883351,36.3863376 61.064,37.4506603 61.064,38.732 C61.064,41.2946795 60.4026733,43.0513286 59.08,44.002 C57.7573267,44.9526714 56.0213441,45.428 53.872,45.428 L50.4,45.428 Z M50.4,25.898 L50.4,14.304 L53.624,14.304 C55.8560111,14.304 57.4886615,14.7379957 58.522,15.606 C59.5553385,16.4740043 60.072,17.9619895 60.072,20.07 C60.072,22.1780105 59.5036723,23.6763289 58.367,24.565 C57.2303276,25.4536711 55.4220124,25.898 52.942,25.898 L50.4,25.898 Z M41.472,7.732 L41.472,52 L56.538,52 C59.142013,52 61.3223245,51.6486702 63.079,50.946 C64.8356754,50.2433298 66.2616612,49.3030059 67.357,48.125 C68.4523388,46.9469941 69.227331,45.5726745 69.682,44.002 C70.1366689,42.4313255 70.364,40.7780087 70.364,39.042 C70.364,36.0659851 69.6406739,33.6893422 68.194,31.912 C66.7473261,30.1346578 64.7840124,29.0806683 62.304,28.75 L62.304,28.626 C64.5360111,28.0059969 66.2099944,26.8383419 67.326,25.123 C68.4420056,23.4076581 69,21.3513453 69,18.954 C69,16.8459895 68.6900031,15.0686739 68.07,13.622 C67.4499969,12.1753261 66.5820056,11.0180043 65.466,10.15 C64.3499944,9.28199566 63.0170077,8.66200186 61.467,8.29 C59.9169922,7.91799814 58.2326757,7.732 56.414,7.732 L41.472,7.732 Z M82.842,29.866 C82.842,26.8899851 82.9143326,24.368677 83.059,22.302 C83.2036673,20.235323 83.4929978,18.5406733 83.927,17.218 C84.3610021,15.8953267 84.9809959,14.9343363 85.787,14.335 C86.593004,13.7356637 87.6573267,13.436 88.98,13.436 C90.3026732,13.436 91.3669959,13.7356637 92.173,14.335 C92.979004,14.9343363 93.5989978,15.8953267 94.033,17.218 C94.4670021,18.5406733 94.7563326,20.235323 94.901,22.302 C95.0456673,24.368677 95.118,26.8899851 95.118,29.866 C95.118,32.8420149 95.0456673,35.3736562 94.901,37.461 C94.7563326,39.5483438 94.4670021,41.2429935 94.033,42.545 C93.5989978,43.8470065 92.979004,44.7976637 92.173,45.397 C91.3669959,45.9963363 90.3026732,46.296 88.98,46.296 C87.6573267,46.296 86.593004,45.9963363 85.787,45.397 C84.9809959,44.7976637 84.3610021,43.8470065 83.927,42.545 C83.4929978,41.2429935 83.2036673,39.5483438 83.059,37.461 C82.9143326,35.3736562 82.842,32.8420149 82.842,29.866 L82.842,29.866 Z M73.914,29.866 C73.914,33.2553503 74.0689984,36.3553193 74.379,39.166 C74.6890015,41.9766807 75.3709947,44.3946565 76.425,46.42 C77.4790052,48.4453435 78.99799,49.995328 80.982,51.07 C82.9660099,52.144672 85.6319832,52.682 88.98,52.682 C92.3280167,52.682 94.99399,52.144672 96.978,51.07 C98.9620099,49.995328 100.480995,48.4453435 101.535,46.42 C102.589005,44.3946565 103.270998,41.9766807 103.581,39.166 C103.891002,36.3553193 104.046,33.2553503 104.046,29.866 C104.046,26.5179833 103.891002,23.4283475 103.581,20.597 C103.270998,17.7656525 102.589005,15.3373435 101.535,13.312 C100.480995,11.2866565 98.9620099,9.70567235 96.978,8.569 C94.99399,7.43232765 92.3280167,6.864 88.98,6.864 C85.6319832,6.864 82.9660099,7.43232765 80.982,8.569 C78.99799,9.70567235 77.4790052,11.2866565 76.425,13.312 C75.3709947,15.3373435 74.6890015,17.7656525 74.379,20.597 C74.0689984,23.4283475 73.914,26.5179833 73.914,29.866 L73.914,29.866 Z M116.586,7.732 L107.658,7.732 L107.658,38.608 C107.658,41.5840149 108.050663,44.0019907 108.836,45.862 C109.621337,47.7220093 110.675327,49.1583283 111.998,50.171 C113.320673,51.1836717 114.829325,51.8553317 116.524,52.186 C118.218675,52.5166683 119.975324,52.682 121.794,52.682 C123.612676,52.682 125.369325,52.4960019 127.064,52.124 C128.758675,51.7519981 130.267327,51.028672 131.59,49.954 C132.912673,48.879328 133.966663,47.4223425 134.752,45.583 C135.537337,43.7436575 135.93,41.4186807 135.93,38.608 L135.93,7.732 L127.002,7.732 L127.002,38.608 C127.002,39.7240056 126.929667,40.7469953 126.785,41.677 C126.640333,42.6070046 126.371669,43.4129966 125.979,44.095 C125.586331,44.7770034 125.059337,45.3143314 124.398,45.707 C123.736663,46.0996686 122.868672,46.296 121.794,46.296 C120.760661,46.296 119.903003,46.0996686 119.221,45.707 C118.538997,45.3143314 118.001669,44.7770034 117.609,44.095 C117.216331,43.4129966 116.947667,42.6070046 116.803,41.677 C116.658333,40.7469953 116.586,39.7240056 116.586,38.608 L116.586,7.732 Z M166.388,7.732 L138.116,7.732 L138.116,15.048 L147.788,15.048 L147.788,52 L156.716,52 L156.716,15.048 L166.388,15.048 L166.388,7.732 Z M17.028,91.758 L17.028,78.304 L20.748,78.304 C22.9800112,78.304 24.5713286,78.8826609 25.522,80.04 C26.4726714,81.1973391 26.948,82.8919888 26.948,85.124 C26.948,87.3973447 26.4003388,89.071328 25.305,90.146 C24.2096612,91.220672 22.7733422,91.758 20.996,91.758 L17.028,91.758 Z M8.1,71.732 L8.1,116 L17.028,116 L17.028,98.33 L21.802,98.33 C23.9100105,98.33 25.8319913,98.061336 27.568,97.524 C29.3040087,96.986664 30.7816606,96.180672 32.001,95.106 C33.2203394,94.031328 34.1709966,92.6466751 34.853,90.952 C35.5350034,89.2573249 35.876,87.2733447 35.876,85 C35.876,83.3466584 35.6693354,81.7243413 35.256,80.133 C34.8426646,78.5416587 34.1606714,77.1260062 33.21,75.886 C32.2593286,74.6459938 31.0090077,73.6436705 29.459,72.879 C27.9089922,72.1143295 25.9973447,71.732 23.724,71.732 L8.1,71.732 Z M39.178,71.732 L39.178,116 L48.106,116 L48.106,97.276 L52.88,97.276 C54.7400093,97.276 56.0626627,97.771995 56.848,98.764 C57.6333372,99.756005 58.0673329,101.119991 58.15,102.856 L58.398,111.35 C58.4393335,112.218004 58.5219994,113.054996 58.646,113.861 C58.7700006,114.667004 59.059331,115.379997 59.514,116 L69.186,116 L69.186,115.628 C68.3593292,115.173331 67.8220012,114.326006 67.574,113.086 C67.4086658,111.845994 67.2846671,110.048012 67.202,107.692 C67.1606664,106.493327 67.1193335,105.408338 67.078,104.437 C67.0366664,103.465662 66.9746671,102.566671 66.892,101.74 C66.6439987,99.2599876 66.0033385,97.4620056 64.97,96.346 C63.9366615,95.2299944 62.3040111,94.5066683 60.072,94.176 L60.072,94.052 C62.5933459,93.514664 64.4533273,92.3056761 65.652,90.425 C66.8506726,88.5443239 67.45,86.1160149 67.45,83.14 C67.45,79.2959808 66.416677,76.4336761 64.35,74.553 C62.283323,72.6723239 59.3900186,71.732 55.67,71.732 L39.178,71.732 Z M48.106,91.076 L48.106,78.304 L52.322,78.304 C56.455354,78.304 58.522,80.3499795 58.522,84.442 C58.522,86.8393453 57.9433391,88.5443283 56.786,89.557 C55.6286609,90.5696717 53.9753441,91.076 51.826,91.076 L48.106,91.076 Z M97.288,71.732 L72.55,71.732 L72.55,116 L97.908,116 L97.908,108.684 L81.478,108.684 L81.478,96.78 L96.358,96.78 L96.358,89.464 L81.478,89.464 L81.478,79.048 L97.288,79.048 L97.288,71.732 Z M108.464,102.174 L99.5359999,102.174 L99.5359999,103.972 C99.5359999,108.06402 100.620989,111.205322 102.791,113.396 C104.961011,115.586678 108.567308,116.682 113.61,116.682 C118.446024,116.682 122.217653,115.617677 124.925,113.489 C127.632347,111.360323 128.986,107.96069 128.986,103.29 C128.986,101.925993 128.862001,100.686006 128.614,99.57 C128.365999,98.4539944 127.92167,97.4310047 127.281,96.501 C126.64033,95.5709954 125.782672,94.703004 124.708,93.897 C123.633328,93.090996 122.248675,92.3160037 120.554,91.572 L113.672,88.596 C111.770657,87.8106627 110.530669,86.9530046 109.952,86.023 C109.37333,85.0929953 109.084,83.9460068 109.084,82.582 C109.084,81.9206634 109.156333,81.2800031 109.301,80.66 C109.445667,80.0399969 109.714331,79.4923357 110.107,79.017 C110.499669,78.5416643 111.026663,78.1593348 111.688,77.87 C112.349337,77.5806652 113.175995,77.436 114.168,77.436 C115.904009,77.436 117.143996,78.0043276 117.888,79.141 C118.632004,80.2776723 119.004,81.8999895 119.004,84.008 L127.56,84.008 L127.56,82.768 C127.56,80.6599895 127.219003,78.8516742 126.537,77.343 C125.854997,75.8343258 124.904339,74.5943382 123.685,73.623 C122.46566,72.6516618 121.019008,71.9490022 119.345,71.515 C117.670992,71.0809978 115.84201,70.864 113.858,70.864 C109.600645,70.864 106.252679,71.9386559 103.814,74.088 C101.375321,76.2373441 100.156,79.5026448 100.156,83.884 C100.156,85.7026758 100.383331,87.3043264 100.838,88.689 C101.292669,90.0736736 102.005662,91.2929947 102.977,92.347 C103.948338,93.4010053 105.157326,94.3206627 106.604,95.106 C108.050674,95.8913373 109.76599,96.6146634 111.75,97.276 C113.238007,97.7720025 114.488328,98.2576643 115.501,98.733 C116.513672,99.2083357 117.329997,99.7353304 117.95,100.314 C118.570003,100.89267 119.014332,101.543663 119.283,102.267 C119.551668,102.990337 119.686,103.847995 119.686,104.84 C119.686,106.700009 119.138339,108.074329 118.043,108.963 C116.947661,109.851671 115.718007,110.296 114.354,110.296 C113.196661,110.296 112.23567,110.130668 111.471,109.8 C110.706329,109.469332 110.096669,109.01467 109.642,108.436 C109.187331,107.85733 108.877334,107.144338 108.712,106.297 C108.546666,105.449662 108.464,104.509338 108.464,103.476 L108.464,102.174 Z M157.088,71.732 L132.35,71.732 L132.35,116 L157.708,116 L157.708,108.684 L141.278,108.684 L141.278,96.78 L156.158,96.78 L156.158,89.464 L141.278,89.464 L141.278,79.048 L157.088,79.048 L157.088,71.732 Z M171.364,71.732 L161.072,71.732 L161.072,116 L169.256,116 L169.256,85 L169.38,85 L180.292,116 L190.46,116 L190.46,71.732 L182.276,71.732 L182.276,102.05 L182.152,102.05 L171.364,71.732 Z M221.476,71.732 L193.204,71.732 L193.204,79.048 L202.876,79.048 L202.876,116 L211.804,116 L211.804,79.048 L221.476,79.048 L221.476,71.732 Z M231.412,102.174 L222.484,102.174 L222.484,103.972 C222.484,108.06402 223.568989,111.205322 225.739,113.396 C227.909011,115.586678 231.515308,116.682 236.558,116.682 C241.394024,116.682 245.165653,115.617677 247.873,113.489 C250.580347,111.360323 251.934,107.96069 251.934,103.29 C251.934,101.925993 251.810001,100.686006 251.562,99.57 C251.313999,98.4539944 250.86967,97.4310047 250.229,96.501 C249.58833,95.5709954 248.730672,94.703004 247.656,93.897 C246.581328,93.090996 245.196675,92.3160037 243.502,91.572 L236.62,88.596 C234.718657,87.8106627 233.478669,86.9530046 232.9,86.023 C232.32133,85.0929953 232.032,83.9460068 232.032,82.582 C232.032,81.9206634 232.104332,81.2800031 232.249,80.66 C232.393667,80.0399969 232.662331,79.4923357 233.055,79.017 C233.447668,78.5416643 233.974663,78.1593348 234.636,77.87 C235.297336,77.5806652 236.123995,77.436 237.116,77.436 C238.852009,77.436 240.091996,78.0043276 240.836,79.141 C241.580004,80.2776723 241.952,81.8999895 241.952,84.008 L250.508,84.008 L250.508,82.768 C250.508,80.6599895 250.167003,78.8516742 249.485,77.343 C248.802996,75.8343258 247.852339,74.5943382 246.633,73.623 C245.41366,72.6516618 243.967008,71.9490022 242.293,71.515 C240.618991,71.0809978 238.79001,70.864 236.806,70.864 C232.548645,70.864 229.200679,71.9386559 226.762,74.088 C224.323321,76.2373441 223.104,79.5026448 223.104,83.884 C223.104,85.7026758 223.331331,87.3043264 223.786,88.689 C224.240669,90.0736736 224.953662,91.2929947 225.925,92.347 C226.896338,93.4010053 228.105326,94.3206627 229.552,95.106 C230.998674,95.8913373 232.71399,96.6146634 234.698,97.276 C236.186007,97.7720025 237.436328,98.2576643 238.449,98.733 C239.461672,99.2083357 240.277997,99.7353304 240.898,100.314 C241.518003,100.89267 241.962332,101.543663 242.231,102.267 C242.499668,102.990337 242.634,103.847995 242.634,104.84 C242.634,106.700009 242.086339,108.074329 240.991,108.963 C239.895661,109.851671 238.666007,110.296 237.302,110.296 C236.144661,110.296 235.18367,110.130668 234.419,109.8 C233.654329,109.469332 233.044669,109.01467 232.59,108.436 C232.135331,107.85733 231.825334,107.144338 231.66,106.297 C231.494666,105.449662 231.412,104.509338 231.412,103.476 L231.412,102.174 Z" id="ABOUT-2" fill="#000000" sketch:type="MSShapeGroup"></path>
        </g>
    </g>
</svg>